<svg version="1.1"
	 xmlns="http://www.w3.org/2000/svg" xmlns:xlink="http://www.w3.org/1999/xlink" xmlns:a="http://ns.adobe.com/AdobeSVGViewerExtensions/3.0/"
	 x="0px" y="0px" width="242.3px" height="16.6px" viewBox="0 0 242.3 16.6" enable-background="new 0 0 242.3 16.6"
	 xml:space="preserve" id="laracon-svg">
<defs>
</defs>
<g>
	<path fill="#FFFFFF" d="M19.2,13.3v2.9H0V0.4h3.5v12.8H19.2z"/>
	<path fill="#FFFFFF" d="M36.6,0.4l10.9,15.8h-4L41,12.4H27.4l-2.5,3.7H21L31.9,0.4H36.6z M29.2,9.7h9.9l-5-7.3L29.2,9.7z"/>
	<path fill="#FFFFFF" d="M64.1,0.4c4.4,0,5.8,0.6,6.9,1.7c0.9,0.9,1.2,2.1,1.2,3.4c0,1.3-0.3,2.5-1.3,3.5c-0.9,0.9-2.2,1.6-5.2,1.8
		l8.4,5.2v0.1H69l-8.3-5.2h-6.2v5.2H51V0.4H64.1z M54.5,8.2h9.7c2.4,0,3.5-0.3,4-0.9c0.4-0.4,0.6-0.8,0.6-1.6c0-0.7-0.2-1.3-0.6-1.7
		c-0.5-0.5-1.5-0.8-4-0.8h-9.7V8.2z"/>
	<path fill="#FFFFFF" d="M90.9,0.4l10.9,15.8h-4l-2.5-3.7H81.7l-2.5,3.7h-3.8L86.2,0.4H90.9z M83.5,9.7h9.9l-5-7.3L83.5,9.7z"/>
	<path fill="#FFFFFF" d="M105.4,13.7c-1.4-1.4-2-3.3-2-5.4s0.7-4.1,2-5.4c1.5-1.5,4.5-2.8,10-2.8c4.4,0,7.7,0.9,9.6,2v3.2
		c-2.2-1.3-5.8-2.4-9.6-2.4c-3.9,0-6.3,0.8-7.3,1.8c-0.8,0.8-1.3,2-1.3,3.6s0.4,2.7,1.3,3.5c1,1,3.4,1.9,7.3,1.9
		c3.8,0,7.4-1,9.6-2.2v3.1c-1.9,1.1-5.2,2-9.6,2C109.9,16.5,106.9,15.2,105.4,13.7z"/>
	<path fill="#FFFFFF" d="M151.6,2.8c1.4,1.4,2,3.1,2,5.5s-0.6,4.1-2,5.5c-1.5,1.5-4.4,2.8-10.3,2.8s-8.8-1.3-10.3-2.8
		c-1.4-1.4-2.1-3.1-2.1-5.5s0.6-4.1,2-5.5c1.5-1.5,4.5-2.8,10.3-2.8C147.2,0,150.1,1.3,151.6,2.8z M133.8,4.6
		c-0.9,0.9-1.3,1.9-1.3,3.7s0.5,2.8,1.4,3.7c1,1,3.2,1.9,7.5,1.9c4.2,0,6.5-0.9,7.5-1.9c0.8-0.8,1.3-1.9,1.3-3.7s-0.5-2.8-1.3-3.6
		c-1.1-1.1-3.3-1.9-7.5-1.9S134.8,3.6,133.8,4.6z"/>
	<path fill="#FFFFFF" d="M177.8,13.1V0.4h3.5v15.7h-4.9L162,3.2v12.9h-3.4V0.4h5.1L177.8,13.1z"/>
	<path fill="#FFFFFF" d="M203.5,0.1l-4.8,6.5h-4l5.7-6.5H203.5z"/>
	<path fill="#FFFFFF" d="M205,3l5.4-2.6h4.1v15.7h-3.5V3.4l-6,2.9V3z"/>
	<path fill="#FFFFFF" d="M221.6,14.4c-1.4-1.4-1.8-3.7-1.8-5.9c0-2.3,0.7-4.4,2-5.7c1.5-1.5,4.4-2.8,9.9-2.8c4.3,0,7.4,0.7,9.3,1.5
		v3.1c-2.2-1.1-5.5-1.8-9.3-1.8c-3.8,0-6,0.8-7.1,1.8c-0.7,0.7-1.2,1.8-1.3,3.7c1.4-1.3,3.6-2.1,8.3-2.1c5.4,0,8.2,0.5,9.6,1.9
		c0.8,0.8,1.1,1.9,1.1,3.1c0,1.1-0.4,2.3-1.2,3.1c-1.3,1.3-3.5,2.3-10,2.3C225.9,16.6,223.3,16,221.6,14.4z M238.2,12.5
		c0.4-0.4,0.5-0.8,0.5-1.3c0-0.5-0.1-0.9-0.5-1.3c-0.8-0.8-3-1.1-6.8-1.1c-3.7,0-6.5,0.4-7.3,1.3c-0.3,0.3-0.5,0.7-0.5,1.2
		c0,0.5,0.2,1,0.5,1.3c0.9,0.9,3.2,1.3,6.9,1.3C234.8,13.8,237.3,13.4,238.2,12.5z"/>
</g>
</svg>
