<svg version="1.1"
	 xmlns="http://www.w3.org/2000/svg" xmlns:xlink="http://www.w3.org/1999/xlink" xmlns:a="http://ns.adobe.com/AdobeSVGViewerExtensions/3.0/"
	 x="0px" y="0px" width="38.4px" height="40px" viewBox="0 0 38.4 40" enable-background="new 0 0 38.4 40" xml:space="preserve">
<defs>
</defs>
<g>
	<g>
		<path fill="#FFFFFF" d="M4.9,37.8c-3,0-2.7-1.9-2.7-2.7V4.9c0-0.9,0.2-2.7,2.7-2.7h19.7c0.9,0,2.7-0.3,2.7,2.7v17.3
			c0.7-0.3,1.4-0.1,2.2-0.3V4.4c0-1.7-0.1-4.4-4.4-4.4H4.4C0.4,0,0,2.7,0,4.4v31.2C0,37.3,0.1,40,4.4,40H24
			c-0.7-0.7-1.2-1.4-1.8-2.2H4.9z M12.1,20.7c-0.8-0.2-1.5-0.4-2.1-0.7v2.2c1.1,0.5,2.5,0.8,4.3,0.8v2.2h1.4v-2.3
			c1.4-0.2,2.5-0.5,3.2-1.2c0.8-0.7,1.1-1.5,1.1-2.5c0-0.8-0.3-1.5-0.8-2.1c-0.5-0.5-1.4-1.1-2.7-1.6l-0.8-0.3v-3.8
			c1.1,0.1,2.2,0.3,3.3,0.8l0.8-1.9c-1.3-0.5-2.6-0.8-4.1-0.9V7.6h-1.4v1.8c-1.3,0.1-2.3,0.5-3.1,1.2c-0.8,0.6-1.2,1.4-1.2,2.4
			c0,0.9,0.3,1.6,0.8,2.2c0.5,0.6,1.4,1.2,2.5,1.6l0.9,0.3V21C13.6,21,12.9,20.9,12.1,20.7z M15.6,17.6c0.7,0.2,1.2,0.5,1.4,0.8
			c0.3,0.3,0.4,0.6,0.4,1c0,0.9-0.6,1.4-1.9,1.6C15.6,20.9,15.6,17.6,15.6,17.6z M12.9,13.9c-0.3-0.3-0.4-0.6-0.4-1s0.2-0.7,0.4-1
			c0.3-0.3,0.7-0.4,1.3-0.5v3.3C13.6,14.5,13.1,14.2,12.9,13.9z M5.5,33.4h15c-0.2-0.7-0.2-1.4-0.2-2.2H5.5V33.4z M30.1,23.6
			c-4.5,0-8.2,3.7-8.2,8.2s3.7,8.2,8.2,8.2s8.2-3.7,8.2-8.2S34.7,23.6,30.1,23.6z M30.1,38.4c-3.6,0-6.6-3-6.6-6.6s3-6.6,6.6-6.6
			c2.1,0,4.1,1,5.3,2.6l-5.3,4.8l-2.1-2.1c-0.2-0.2-0.5-0.2-0.7,0l-0.8,0.7c-0.2,0.2-0.2,0.4,0,0.6l3.3,3C29.8,35,29.9,35,30,35
			c0.1,0,0.3-0.1,0.3-0.1l5.9-5.4c0.3,0.7,0.4,1.5,0.4,2.2C36.7,35.4,33.8,38.4,30.1,38.4z"/>
	</g>
</g>
</svg>
