<svg version="1.1"
	 xmlns="http://www.w3.org/2000/svg" xmlns:xlink="http://www.w3.org/1999/xlink" xmlns:a="http://ns.adobe.com/AdobeSVGViewerExtensions/3.0/"
	 x="0px" y="0px" width="69.3px" height="47px" viewBox="0 0 69.3 47" enable-background="new 0 0 69.3 47" xml:space="preserve">
<defs>
</defs>
<path fill="#444444" d="M1.1,25C0.5,25,0,24.5,0,23.9v-0.7C0,22.5,0.5,22,1.1,22s1.1,0.5,1.1,1.1v0.7C2.2,24.5,1.7,25,1.1,25z"/>
<path fill="#444444" d="M5.6,24.6c-0.3,0-0.6-0.1-0.8-0.3c-0.2-0.2-0.3-0.5-0.3-0.8c0-0.3,0.1-0.6,0.3-0.8c0.4-0.4,1.2-0.4,1.6,0
	c0.2,0.2,0.3,0.5,0.3,0.8c0,0.3-0.1,0.6-0.3,0.8C6.2,24.5,5.9,24.6,5.6,24.6z"/>
<path fill="#444444" d="M10.1,35.8c-0.6,0-1.1-0.5-1.1-1.1V12.3c0-0.6,0.5-1.1,1.1-1.1s1.1,0.5,1.1,1.1v22.4
	C11.2,35.3,10.7,35.8,10.1,35.8z"/>
<path fill="#444444" d="M19,43.3c-0.6,0-1.1-0.5-1.1-1.1V4.8c0-0.6,0.5-1.1,1.1-1.1s1.1,0.5,1.1,1.1v37.3
	C20.1,42.7,19.6,43.3,19,43.3z"/>
<path fill="#444444" d="M14.5,47c-0.6,0-1.1-0.5-1.1-1.1V1.1C13.4,0.5,14,0,14.5,0s1.1,0.5,1.1,1.1v44.8C15.7,46.5,15.1,47,14.5,47z
	"/>
<path fill="#444444" d="M23.5,37.3c-0.6,0-1.1-0.5-1.1-1.1V10.8c0-0.6,0.5-1.1,1.1-1.1s1.1,0.5,1.1,1.1v25.4
	C24.6,36.8,24.1,37.3,23.5,37.3z"/>
<path fill="#444444" d="M28,31.7c-0.6,0-1.1-0.5-1.1-1.1V16.4c0-0.6,0.5-1.1,1.1-1.1s1.1,0.5,1.1,1.1v14.2
	C29.1,31.2,28.6,31.7,28,31.7z"/>
<path fill="#444444" d="M32.5,28c-0.6,0-1.1-0.5-1.1-1.1v-6.7c0-0.6,0.5-1.1,1.1-1.1s1.1,0.5,1.1,1.1v6.7C33.6,27.5,33,28,32.5,28z"
	/>
<path fill="#444444" d="M36.9,29.8c-0.6,0-1.1-0.5-1.1-1.1V18.3c0-0.6,0.5-1.1,1.1-1.1s1.1,0.5,1.1,1.1v10.4
	C38,29.3,37.5,29.8,36.9,29.8z"/>
<path fill="#444444" d="M41.4,26.9c-0.6,0-1.1-0.5-1.1-1.1v-4.5c0-0.6,0.5-1.1,1.1-1.1s1.1,0.5,1.1,1.1v4.5
	C42.5,26.3,42,26.9,41.4,26.9z"/>
<path fill="#444444" d="M45.9,25.7c-0.6,0-1.1-0.5-1.1-1.1v-2.2c0-0.6,0.5-1.1,1.1-1.1c0.6,0,1.1,0.5,1.1,1.1v2.2
	C47,25.2,46.5,25.7,45.9,25.7z"/>
<path fill="#444444" d="M50.4,24.6c-0.3,0-0.6-0.1-0.8-0.3c-0.1-0.1-0.1-0.2-0.2-0.4c-0.1-0.1-0.1-0.3-0.1-0.4c0-0.1,0-0.1,0-0.2
	s0-0.1,0.1-0.2c0-0.1,0.1-0.1,0.1-0.2c0.1-0.1,0.1-0.1,0.1-0.1c0.1-0.1,0.1-0.1,0.1-0.1c0.1-0.1,0.1-0.1,0.2-0.1
	c0.1,0,0.1-0.1,0.2-0.1c0.1,0,0.3,0,0.4,0c0.1,0,0.1,0,0.2,0.1c0.1,0,0.1,0.1,0.2,0.1c0.1,0.1,0.1,0.1,0.1,0.1
	c0.1,0.1,0.1,0.1,0.1,0.1c0,0.1,0.1,0.1,0.1,0.2s0.1,0.1,0.1,0.2s0,0.1,0,0.2c0,0.1,0,0.3-0.1,0.4c-0.1,0.1-0.1,0.3-0.2,0.4
	c-0.1,0.1-0.2,0.1-0.4,0.2C50.7,24.6,50.5,24.6,50.4,24.6z"/>
<path fill="#444444" d="M54.8,25c-0.6,0-1.1-0.5-1.1-1.1v-0.7c0-0.6,0.5-1.1,1.1-1.1c0.6,0,1.1,0.5,1.1,1.1v0.7
	C56,24.5,55.4,25,54.8,25z"/>
<path fill="#444444" d="M63.8,25c-0.6,0-1.1-0.5-1.1-1.1v-0.7c0-0.6,0.5-1.1,1.1-1.1c0.6,0,1.1,0.5,1.1,1.1v0.7
	C64.9,24.5,64.4,25,63.8,25z"/>
<path fill="#444444" d="M59.3,24.6c-0.3,0-0.6-0.1-0.8-0.3c-0.2-0.2-0.3-0.5-0.3-0.8c0-0.1,0-0.1,0-0.2s0-0.1,0.1-0.2
	c0-0.1,0.1-0.1,0.1-0.2c0.1-0.1,0.1-0.1,0.1-0.1c0.3-0.3,0.7-0.4,1-0.3c0.1,0,0.1,0,0.2,0.1c0.1,0,0.1,0.1,0.2,0.1
	c0.1,0.1,0.1,0.1,0.1,0.1c0.2,0.2,0.3,0.5,0.3,0.8s-0.1,0.6-0.3,0.8c-0.1,0.1-0.2,0.1-0.4,0.2C59.6,24.6,59.5,24.6,59.3,24.6z"/>
<path fill="#444444" d="M68.3,24.6c-0.3,0-0.6-0.1-0.8-0.3c-0.1-0.1-0.1-0.2-0.2-0.4c-0.1-0.1-0.1-0.3-0.1-0.4
	c0-0.3,0.1-0.6,0.3-0.8c0.4-0.4,1.2-0.4,1.6,0c0.2,0.2,0.3,0.5,0.3,0.8c0,0.1,0,0.3-0.1,0.4c-0.1,0.1-0.1,0.3-0.2,0.4
	C68.9,24.5,68.6,24.6,68.3,24.6z"/>
</svg>
