<svg version="1.1"
	 xmlns="http://www.w3.org/2000/svg" xmlns:xlink="http://www.w3.org/1999/xlink" xmlns:a="http://ns.adobe.com/AdobeSVGViewerExtensions/3.0/"
	 x="0px" y="0px" width="200px" height="36.8px" viewBox="0 0 200 36.8" enable-background="new 0 0 200 36.8" xml:space="preserve"
	>
<defs>
</defs>
<g id="svg-forge-logo-path_1_" transform="translate(-1.1276223,0.6171329)">
	<path fill="#FFFFFF" d="M72.8-0.3c3.8,0,5.5,0.7,6.6,2c1.6,2,2.4,6.1-0.1,16.1c-2.5,10-5.4,14-8,16.1c-1.8,1.4-3.9,2-7.7,2H51.5
		c-3.8,0-5.6-0.7-6.6-2c-1.6-2-2.4-6.1,0.2-16.1c2.5-10,5.4-14,8.1-16.1c1.8-1.4,3.9-2,7.7-2C60.9-0.3,72.8-0.3,72.8-0.3z
		 M55.1,27.2c0.2,0.3,0.7,0.4,2.2,0.4H62c1.6,0,2.1-0.1,2.5-0.4c0.5-0.4,1.4-1.4,3.3-9.3c2-8,1.7-8.9,1.4-9.3
		C69,8.2,68.6,8.1,67,8.1h-4.6c-1.6,0-2.1,0.1-2.5,0.4c-0.5,0.4-1.4,1.4-3.3,9.3C54.5,25.9,54.8,26.8,55.1,27.2z M102.3,24.3
		c-0.4-0.5-0.8-0.7-3.1-0.7h-4.6c-0.5,0-1,0.4-1.1,0.9l-2.6,10.7c-0.1,0.5-0.6,0.9-1.1,0.9h-9.4c-0.5,0-0.8-0.4-0.7-0.9l8.7-34.6
		c0.1-0.5,0.6-0.9,1.1-0.9h22.2c3.6,0,5.5,0.5,6.6,1.8c1.2,1.7,1.6,3.4,0.3,8.5c-1.7,6.8-4.2,8.8-8.6,9.6v0.1c3.4,0.9,5.3,2,4.1,7.3
		c-0.7,3-1.2,6-1.5,8.1c-0.1,0.5-0.6,1-1.1,1h-9.6c-0.4,0-0.8-0.3-0.7-0.8c0.3-2.2,0.7-4.5,1.3-7.3
		C102.9,25.4,102.7,24.9,102.3,24.3L102.3,24.3z M101.6,15.7c2,0,2.6-0.1,3-0.4c0.7-0.5,1.2-1.4,1.7-3.5c0.5-2.1,0.4-2.9,0-3.4
		C106,8.1,105.5,8,103.5,8h-5.1c-0.5,0-1,0.4-1.1,0.9l-1.5,6c-0.1,0.5,0.2,0.9,0.7,0.9L101.6,15.7L101.6,15.7z M149.2-0.6
		c3.9,0,5.9,0.5,7.1,1.8c1.4,1.7,1.8,4.2,0.8,9.8c-0.1,0.5-0.6,0.9-1.1,0.9h-9c-0.5,0-0.8-0.4-0.7-0.8c0.4-2.2-0.1-2.5-0.4-2.9
		c-0.2-0.3-0.6-0.4-2.2-0.4H139c-1.7,0-2.1,0.1-2.5,0.4c-0.6,0.5-1.7,2.1-3.4,9.5c-1.8,7.4-1.5,9.1-1.2,9.6c0.2,0.3,0.7,0.4,2.3,0.4
		h5c1.5,0,2-0.1,2.4-0.4c0.5-0.4,1.5-1.4,2-4l0.1-0.3h-7c-0.5,0-0.8-0.4-0.7-0.9l1.4-5.8c0.1-0.5,0.6-0.9,1.1-0.9h16.8
		c0.5,0,0.8,0.4,0.7,0.9l-0.9,3.6c-2,8.9-4.5,12-7,14c-1.8,1.6-4.5,2.1-7.9,2.1h-12.2c-3.8,0-5.6-0.7-6.7-2.1
		c-1.7-2.1-2.5-6.1-0.1-16.2s5.3-14.2,7.9-16.2c1.8-1.5,3.9-2.1,7.7-2.1L149.2-0.6L149.2-0.6z M187.1,36.2h-29.1
		c-0.5,0-0.8-0.4-0.7-0.9l8.2-35c0.1-0.5,0.6-0.9,1.1-0.9h33.9c0.6,0,0.9,0.6,0.5,1.2c-1.5,2.3-7.1,7.3-13.4,7.3h-11.8
		c-0.5,0-1,0.4-1.1,0.9l-0.9,3.9c-0.1,0.5,0.2,0.9,0.7,0.9h15.9c0.5,0,0.8,0.4,0.7,0.9l-1.4,6.1c-0.1,0.5-0.6,0.9-1.1,0.9h-15.9
		c-0.5,0-1,0.4-1.1,0.9l-1.1,4.5c-0.1,0.5,0.2,0.9,0.7,0.9h17.8c0.5,0,0.8,0.4,0.7,0.9l-1.6,6.7C188.1,35.8,187.6,36.2,187.1,36.2
		L187.1,36.2z M47.4-0.3H7.5c-0.5,0-1,0.4-1.1,0.9l-1,3.5C5.3,4.4,5.5,4.7,5.8,4.9c1.6,0.5,9.9,0.7,8.7,5.4l-0.3,1.3l-3.4,12.7
		l-0.3,1.3c-1.3,4.7-5.7,4.9-7.6,5.4c-0.4,0.1-0.7,0.5-0.8,0.9l-1,3.5c-0.1,0.5,0.2,0.9,0.7,0.9h16.2c0.5,0,1-0.4,1.1-0.9L22.1,24
		c0.1-0.5,0.6-0.9,1.1-0.9h10.4c0.5,0,1-0.4,1.1-0.9l1.6-6c0.1-0.5-0.2-0.9-0.7-0.9H25.1c-0.5,0-0.8-0.4-0.7-0.9L25.9,9
		c0.1-0.5,0.6-0.9,1.1-0.9h15.7c0.5,0,1-0.4,1.1-0.9l4.2-6.6C48,0.1,47.8-0.3,47.4-0.3z"/>
</g>
</svg>
