<svg version="1.1"
	 xmlns="http://www.w3.org/2000/svg" xmlns:xlink="http://www.w3.org/1999/xlink" xmlns:a="http://ns.adobe.com/AdobeSVGViewerExtensions/3.0/"
	 x="0px" y="0px" width="128.2px" height="28px" viewBox="0 0 128.2 28" enable-background="new 0 0 128.2 28" xml:space="preserve"
	>
<defs>
</defs>
<g>
	<path fill="#c3c3c3" d="M14.2,0.4c0,0.2,0,0.5,0,0.7c0,0.2,0,0.5,0,0.7l-1.4-0.3C12.9,3,13,4.5,13.1,6c0.1,1.5,0,3-0.1,4.5
		c0,0.4-0.1,0.8-0.1,1.2c-0.1,0.4-0.1,0.8-0.3,1.2c-0.1,0.4-0.3,0.7-0.5,1.1c-0.2,0.3-0.5,0.6-0.9,0.9c-0.4,0.2-0.9,0.4-1.5,0.6
		c-0.6,0.2-1.1,0.3-1.6,0.3c-0.6,0-1.2-0.1-1.6-0.3c-0.5-0.2-0.9-0.6-1.1-1c-0.3-0.5-0.5-1-0.6-1.6c-0.1-0.6-0.1-1.3,0-2.1
		c0-0.2,0.1-0.5,0.2-0.7C4.9,9.9,5,9.7,5.1,9.5c0.1-0.2,0.2-0.4,0.3-0.6l1.1,0.4C6.7,9.3,7,9.4,7.3,9.5c0.3,0.1,0.5,0.1,0.6,0.2
		c0,0.2,0,0.4-0.1,0.5c-0.1,0.2-0.1,0.3-0.2,0.4c-0.1,0.1-0.2,0.3-0.2,0.4c-0.1,0.2-0.1,0.3-0.1,0.5l-1.3-0.7
		c-0.1,0.3-0.2,0.7-0.2,1.1c0,0.4,0.1,0.8,0.2,1.2c0.2,0.4,0.4,0.7,0.6,1c0.3,0.3,0.6,0.4,1,0.3c0.6,0,1.1-0.3,1.4-0.6
		c0.3-0.4,0.5-0.9,0.7-1.7c0.1-0.7,0.2-1.6,0.2-2.8c0-1.1,0-2.4,0-3.9c0-0.6-0.1-1.3-0.1-2C9.7,2.8,9.6,2.1,9.5,1.4
		c-0.2,0-0.5,0-0.8,0c-0.3,0-0.6,0-0.8,0c-0.8,0-1.5,0-2.2,0c-0.7,0-1.5,0-2.2,0.2c-0.3,0.1-0.6,0.2-1,0.4C2.2,2.1,1.9,2.4,1.6,2.6
		C1.4,2.9,1.2,3.2,1.1,3.6C1,3.9,1,4.3,1.1,4.6c0.1,0.5,0.3,0.8,0.4,0.9V5.4c0-0.4,0.1-0.8,0.4-1c0.3-0.2,0.6-0.3,0.9-0.3
		c0.3,0,0.6,0.1,0.9,0.3C4,4.6,4.1,5,4.1,5.4c0,0.4-0.1,0.8-0.4,1c-0.3,0.2-0.6,0.3-1,0.3H2.7C1.9,6.7,1.3,6.5,0.9,6
		C0.5,5.6,0.2,5.1,0.1,4.5C0,4,0,3.4,0.2,2.7c0.2-0.6,0.5-1.1,1-1.5c0.4-0.3,0.8-0.5,1.2-0.7c0.4-0.1,0.9-0.2,1.4-0.3
		c0.5-0.1,0.9-0.1,1.4-0.1c0.5,0,0.9,0,1.4,0h1.5c0.6,0,1.1,0,1.6,0.1c0.5,0,1,0.1,1.5,0.1c0.5,0,1,0.1,1.5,0.1
		C13.1,0.5,13.6,0.5,14.2,0.4z"/>
	<path fill="#c3c3c3" d="M25.2,14.3c0,0.2,0.1,0.4,0.1,0.6c0,0.2,0.1,0.4,0.1,0.7c-1-0.1-2-0.2-3-0.1c-1.1,0.1-2.1,0.2-3,0.4
		c0-0.2-0.1-0.4-0.1-0.5c0-0.2-0.1-0.4-0.1-0.5c0.2,0,0.5-0.1,0.7-0.1c0.2,0,0.4-0.1,0.6-0.1c-0.1-1.5-0.3-3.1-0.5-4.6
		c-0.5,0.1-0.9,0.1-1.4,0.2c-0.5,0.1-0.9,0.1-1.4,0.2c-0.2,0.7-0.3,1.3-0.5,2c-0.2,0.7-0.3,1.3-0.5,2c0.2,0,0.4,0,0.6,0
		c0.1,0,0.3,0,0.4,0.1c0,0.2,0,0.3,0,0.5c0,0.1,0,0.2,0,0.4c0,0.1,0,0.2-0.1,0.3H14v-1.2h1c0.2-0.5,0.3-1,0.4-1.5
		c0.1-0.5,0.3-1,0.4-1.5c0.2-0.6,0.3-1.2,0.5-1.7c0.2-0.6,0.3-1.2,0.5-1.7c0.2-1.1,0.4-2.1,0.6-3.2c0.2-1.1,0.3-2.1,0.4-3.2
		c-0.2,0-0.5,0-0.7,0c-0.2,0-0.4,0-0.7,0c0-0.2,0.1-0.4,0.1-0.6c0-0.2,0-0.4,0.1-0.6c0.9,0,1.9,0,2.9,0c1,0,2,0,2.9,0l0.2,1.2
		c-0.2,0-0.3,0-0.5,0c-0.2,0-0.3,0-0.5,0c0.3,2.1,0.7,4.3,1,6.5c0.3,2.2,0.7,4.4,1,6.5H25.2z M17.5,9c0.4-0.1,0.7-0.1,1.1-0.2
		c0.4-0.1,0.8-0.1,1.2-0.2c-0.2-1-0.3-2-0.5-2.9c-0.2-1-0.4-1.9-0.6-2.9c-0.2,1-0.4,2.1-0.5,3.1C17.9,6.9,17.7,8,17.5,9z"/>
	<path fill="#c3c3c3" d="M36.7,10.4c-0.1,0-0.2,0-0.3,0c-0.1,0-0.2,0-0.3,0c0,0.6,0,1.2-0.2,1.9c-0.2,0.6-0.5,1.2-1,1.6
		c-0.5,0.5-1,0.9-1.6,1.1c-0.6,0.3-1.3,0.4-2,0.5c-0.6,0.1-1.1,0.1-1.8,0c-0.6-0.1-1.1-0.4-1.6-0.7c-0.2-0.2-0.5-0.4-0.8-0.7
		c-0.3-0.3-0.5-0.5-0.6-0.8c-0.3-0.5-0.5-1-0.6-1.5c-0.2-0.5-0.3-0.9-0.4-1.4c-0.1-0.5-0.2-1-0.2-1.5c0-0.5,0-1,0.1-1.6
		c0.2-1,0.4-2,0.8-2.9c0.4-0.9,0.8-1.7,1.4-2.3c0.5-0.7,1.2-1.2,1.9-1.6C30.2,0.2,30.9,0,31.7,0c0.3,0,0.5,0,0.8,0.1
		c0.3,0.1,0.5,0.2,0.7,0.4c0.3,0.3,0.7,0.7,1,1.2c0.3,0.5,0.6,1.2,0.7,1.9c0.1,0,0.2,0,0.3,0c0.1,0,0.2,0,0.3,0c0,0.1,0,0.2,0,0.3
		c0,0.1,0,0.2,0,0.3L33,4.6c-0.3,0.1-0.5,0.1-0.6,0c-0.1,0-0.2-0.1-0.2-0.2c-0.1-0.1-0.1-0.2,0-0.3c0.1,0,0.2,0,0.2,0
		c0.1,0,0.1,0,0.2,0c0.2-0.2,0.3-0.3,0.3-0.6c0-0.2,0-0.5,0-0.7c0-0.5-0.2-0.9-0.5-1.3c-0.2-0.2-0.3-0.3-0.4-0.4
		C31.8,1,31.6,1,31.4,1.1c-0.2,0-0.4,0.2-0.6,0.4c-0.2,0.2-0.4,0.5-0.5,0.9C30,2.6,29.9,3,29.8,3.3c-0.1,0.3-0.2,0.5-0.2,0.7
		c-0.6,2.6-0.7,5.3-0.2,8c0.1,0.3,0.2,0.7,0.3,1s0.3,0.6,0.5,0.9c0.2,0.3,0.5,0.5,0.8,0.7c0.3,0.2,0.6,0.2,1,0.1
		c0.6-0.1,1-0.4,1.4-1c0.3-0.5,0.6-1.1,0.7-1.8c0.1-0.3,0.1-0.6,0.1-0.9v-0.5c-0.2,0-0.4,0-0.6-0.1c-0.1-0.1-0.2-0.2-0.2-0.3
		c0-0.1,0-0.2,0.1-0.3c0.6,0,1.2,0,1.7,0c0.6,0,1.2,0,1.7,0c0,0.1,0,0.2-0.1,0.3C36.7,10.2,36.7,10.3,36.7,10.4z"/>
	<path fill="#c3c3c3" d="M48,14.2c0.1,0.2,0.3,0.3,0.5,0.4c0.2,0.1,0.5,0.1,0.7,0c0.1,0.1,0.1,0.2,0.1,0.4c0,0.2-0.1,0.3-0.2,0.4
		c-0.1,0.1-0.2,0.2-0.4,0.2c-0.2,0-0.3,0-0.4,0c-0.3,0-0.7,0-1,0c-0.3,0-0.7,0-1-0.1c-0.3-0.1-0.7-0.2-1-0.4
		c-0.3-0.2-0.5-0.4-0.7-0.7c-0.2-0.3-0.3-0.6-0.3-1c0-0.3,0-0.7,0-1.1V9.9c0-0.1,0-0.3,0-0.4c0-0.2-0.1-0.3-0.2-0.5
		c-0.1-0.2-0.3-0.3-0.4-0.4c-0.2-0.1-0.4-0.1-0.7-0.1c-0.1,0-0.2,0-0.5,0.1c-0.2,0.3-0.3,0.5-0.5,0.8c-0.2,0.3-0.3,0.5-0.5,0.7
		c0,0.8,0,1.5-0.1,2.2c0,0.7-0.1,1.5-0.1,2.1h1.4v1.1c-0.5,0-0.9,0.1-1.3,0c-0.4,0-0.8,0-1.2-0.1c-0.4,0-0.8-0.1-1.2-0.1
		c-0.4,0-0.8,0-1.3,0c-0.1,0-0.3,0-0.4,0c-0.1,0-0.2,0-0.3-0.1c-0.1,0-0.1-0.1-0.1-0.2c0-0.1-0.1-0.3-0.1-0.4c0-0.1,0-0.3,0-0.4
		c0-0.1,0.1-0.2,0.1-0.2c0.2,0.1,0.4,0.2,0.6,0.1s0.4-0.2,0.5-0.4c0-0.1,0.1-0.3,0.1-0.7c0-0.4,0-0.9,0.1-1.6c0-0.6,0.1-1.3,0.1-2.1
		c0-0.8,0-1.6,0.1-2.4c0-0.8,0-1.5,0.1-2.3c0-0.7,0.1-1.3,0.1-1.8c0-0.2,0-0.5,0-0.7c0-0.2-0.1-0.4-0.2-0.6
		c-0.1-0.2-0.3-0.3-0.5-0.4c-0.2-0.1-0.4,0-0.6,0.1c0-0.2-0.1-0.5-0.1-0.7c0-0.2,0-0.4-0.1-0.7c1,0,2,0.1,3,0.1c0.9,0,1.9,0.1,3,0.1
		c0,0.1,0,0.2,0,0.3c0,0.1,0,0.3,0.1,0.4c0,0.1,0,0.3,0,0.4c0,0.1,0,0.2-0.1,0.2c-0.1,0.1-0.2,0.1-0.3,0.1c-0.1,0-0.2,0-0.4-0.1
		c-0.1-0.1-0.3-0.1-0.4-0.2c-0.1-0.1-0.3-0.1-0.3-0.1c-0.1,0.9-0.1,1.9-0.1,2.9c0,1-0.1,2-0.1,3.1c0.7-1.2,1.4-2.5,2-3.8
		c0.2-0.3,0.3-0.6,0.4-0.9c0.1-0.3,0.3-0.6,0.5-0.9c0.2-0.3,0.4-0.5,0.7-0.7C45.4,1,45.7,0.9,46,0.8c0.3-0.1,0.7-0.1,1,0
		c0.3,0.1,0.6,0.2,0.9,0.5c0.2,0.3,0.4,0.6,0.4,1c0,0.4,0.1,0.8,0,1.1c0,0.2,0,0.3,0,0.5c0,0.2-0.1,0.3-0.2,0.4
		c-0.1,0.2-0.2,0.3-0.4,0.4c-0.2,0.1-0.4,0.1-0.5,0.2c-0.1,0-0.3,0.1-0.4,0.1c-0.1,0-0.3,0-0.4,0C46.2,4.7,46,4.6,46,4.4
		c-0.1-0.2-0.1-0.4,0-0.5c0.1-0.2,0.2-0.3,0.3-0.3c0.1,0,0.2-0.1,0.4-0.1c0.2-0.1,0.3-0.2,0.3-0.3c0.1-0.2,0.1-0.3,0.1-0.5
		C47.1,2.4,47,2.2,47,2c-0.1-0.2-0.2-0.3-0.3-0.3c-0.2,0-0.3,0-0.5,0.1C46,1.9,45.9,2,45.7,2.2c-0.2,0.2-0.3,0.4-0.4,0.6
		C45.2,3,45,3.3,44.9,3.5c-0.1,0.3-0.3,0.6-0.4,0.8c-0.2,0.2-0.3,0.5-0.4,0.8c-0.4,0.9-0.8,1.7-1.2,2.5c0.3,0,0.6-0.1,1,0
		c0.4,0,0.7,0,1,0c0.3,0,0.7,0.1,1,0.2c0.3,0.1,0.6,0.3,0.8,0.6c0.3,0.3,0.4,0.6,0.5,1c0.1,0.4,0.1,0.8,0.2,1.1l0.2,2.1
		c0,0.2,0.1,0.5,0.1,0.7C47.7,13.7,47.8,14,48,14.2z"/>
	<path fill="#c3c3c3" d="M71.7,13.9c0.2,0.2,0.4,0.4,0.7,0.5c0.3,0.1,0.5,0,0.8-0.1c0,0.2,0.1,0.3,0.1,0.6c0.1,0.2,0.1,0.4,0.1,0.6
		c-0.3,0-0.7,0-1.1,0s-0.8,0-1.3,0.1c-0.4,0-0.9,0-1.3,0c-0.4,0-0.8,0-1,0c0-0.1,0-0.1,0-0.2c0-0.1,0.1-0.2,0.2-0.3
		c0.1-0.1,0.2-0.2,0.4-0.3c0.2-0.1,0.3-0.1,0.6-0.1c0.1,0,0.1-0.2,0.1-0.7c0-0.4,0-1,0-1.6c0-0.6,0-1.2-0.1-1.9s0-1.1,0-1.5
		c0-1,0-1.9,0-2.6c0-0.7,0.1-1.5,0.1-2.2c-0.6,1.3-1.1,2.7-1.6,4.1c-0.5,1.5-1,3-1.5,4.4c0,0,0.1,0.1,0.1,0.2c-0.2,0-0.4,0-0.7,0.1
		c-0.3,0.1-0.5,0.1-0.7,0.1c-0.5-1.9-1.1-3.7-1.6-5.5c-0.5-1.8-1.1-3.6-1.6-5.5c-0.1,1-0.1,2-0.1,3c0,1.1-0.1,2.1-0.1,3.2
		c0,1.1,0,2.1-0.1,3.2c0,1-0.1,2-0.1,3h1.4v1.1c-0.5,0-0.9,0.1-1.3,0c-0.4,0-0.8,0-1.2-0.1c-0.4,0-0.8-0.1-1.2-0.1
		c-0.4,0-0.8,0-1.3,0c-0.1,0-0.3,0-0.4,0c-0.1,0-0.2,0-0.3-0.1c-0.1,0-0.1-0.1-0.1-0.2c0-0.1-0.1-0.3-0.1-0.4c0-0.1,0-0.3,0-0.4
		c0-0.1,0.1-0.2,0.1-0.2c0.2,0.1,0.4,0.2,0.6,0.1s0.4-0.2,0.5-0.4c0-0.1,0.1-0.3,0.1-0.7c0-0.4,0-0.9,0.1-1.6c0-0.6,0.1-1.3,0.1-2.1
		C59,8.8,59,8,59,7.2c0-0.8,0-1.5,0.1-2.3c0-0.7,0.1-1.3,0.1-1.8c0-0.2,0-0.5,0-0.7c0-0.2-0.1-0.4-0.2-0.6c-0.1-0.2-0.3-0.3-0.5-0.4
		c-0.2-0.1-0.4,0-0.6,0.1c0-0.2-0.1-0.5-0.1-0.7c0-0.2,0-0.4-0.1-0.7c1,0,2,0.1,3,0.1c0.9,0,1.9,0.1,3,0.1c0,0.3-0.1,0.5-0.4,0.7
		c0.3,1.3,0.6,2.6,1,3.9c0.4,1.3,0.8,2.6,1.2,3.9c0.2-0.6,0.4-1.3,0.6-1.9c0.2-0.6,0.4-1.2,0.6-1.8C67,4.6,67.2,4,67.5,3.4
		c0.2-0.6,0.4-1.3,0.6-2c-0.1,0-0.3,0-0.4-0.1c-0.1,0-0.2,0-0.4-0.1c-0.1,0-0.1-0.1-0.1-0.3c0-0.1,0.1-0.2,0.1-0.3
		c0.1-0.1,0.2-0.1,0.3-0.1c0.1,0,0.2,0,0.3,0c0.4,0,0.7,0,1,0s0.6,0,0.9,0c0.3,0,0.6,0,0.9,0c0.3,0,0.6,0,1,0c0.1,0,0.3,0,0.4,0
		c0.1,0,0.3,0.1,0.4,0.2c0.1,0.1,0.2,0.2,0.2,0.4c0,0.2,0,0.3-0.2,0.3c-0.1-0.1-0.2-0.1-0.3-0.1c-0.1,0-0.2,0.1-0.3,0.1
		c-0.2,0.4-0.3,0.8-0.4,1.3c-0.1,0.5-0.1,0.9-0.1,1.4c-0.2,2.8-0.2,5.6,0,8.4c0,0.3,0,0.5,0.1,0.7C71.4,13.5,71.5,13.7,71.7,13.9z"
		/>
	<path fill="#c3c3c3" d="M81.7,12c-0.1,0-0.1,0-0.2,0c-0.1,0-0.1,0-0.2,0c0,0.4,0,0.9-0.2,1.3c-0.1,0.4-0.4,0.8-0.7,1.1
		c-0.3,0.3-0.7,0.6-1.1,0.8c-0.4,0.2-0.9,0.3-1.3,0.4c-0.4,0.1-0.8,0-1.2,0c-0.4-0.1-0.8-0.2-1.1-0.5c-0.2-0.1-0.3-0.3-0.5-0.5
		c-0.2-0.2-0.3-0.4-0.4-0.6c-0.2-0.4-0.3-0.7-0.4-1c-0.1-0.3-0.2-0.6-0.3-1C74,11.7,74,11.4,74,11c0-0.3,0-0.7,0.1-1.1
		c0.1-0.7,0.3-1.4,0.5-2c0.3-0.6,0.6-1.1,0.9-1.6s0.8-0.8,1.3-1.1c0.5-0.3,1-0.4,1.5-0.4c0.2,0,0.4,0,0.6,0.1
		c0.2,0.1,0.3,0.1,0.5,0.3C79.6,5.4,79.8,5.6,80,6c0.2,0.4,0.4,0.8,0.5,1.3c0.1,0,0.1,0,0.2,0c0.1,0,0.1,0,0.2,0c0,0.1,0,0.1,0,0.2
		c0,0.1,0,0.1,0,0.2L79.2,8c-0.2,0.1-0.3,0.1-0.4,0c-0.1,0-0.1-0.1-0.2-0.2c0-0.1,0-0.1,0-0.2c0.1,0,0.1,0,0.2,0c0,0,0.1,0,0.2,0
		c0.1-0.1,0.2-0.2,0.2-0.4c0-0.2,0-0.3,0-0.5c0-0.3-0.1-0.6-0.3-0.9c-0.1-0.1-0.2-0.2-0.3-0.3c-0.1-0.1-0.2-0.1-0.4,0
		c-0.1,0-0.3,0.1-0.4,0.3c-0.1,0.2-0.3,0.4-0.4,0.6c-0.1,0.2-0.2,0.4-0.3,0.6c-0.1,0.2-0.1,0.4-0.1,0.5c-0.4,1.8-0.5,3.6-0.1,5.5
		c0.1,0.2,0.1,0.4,0.2,0.7c0.1,0.2,0.2,0.4,0.3,0.6c0.1,0.2,0.3,0.3,0.6,0.5c0.2,0.1,0.4,0.1,0.7,0.1c0.4-0.1,0.7-0.3,1-0.7
		c0.2-0.4,0.4-0.8,0.5-1.2c0-0.2,0.1-0.4,0.1-0.6v-0.3c-0.2,0-0.3,0-0.4,0c-0.1,0-0.1-0.1-0.1-0.2c0-0.1,0-0.2,0.1-0.2
		c0.4,0,0.8,0,1.2,0c0.4,0,0.8,0,1.2,0c0,0.1,0,0.1,0,0.2C81.8,11.8,81.8,11.9,81.7,12z"/>
	<path fill="#c3c3c3" d="M83.5,14.2c0.2-4.3,0.3-8.5,0.2-12.8c-0.3,0-0.6,0-0.9,0c-0.3,0-0.6,0-0.9,0c0-0.2,0-0.3,0-0.5s0-0.3,0-0.5
		c0.7,0,1.3,0,2-0.1c0.7,0,1.3,0,2-0.1c0.8-0.2,1.6-0.2,2.4-0.1c0.8,0.1,1.6,0.3,2.4,0.5c0.7,0.3,1.4,0.7,1.9,1.2
		c0.5,0.5,0.9,1.1,1.1,1.8C94,4.9,94.1,6.1,94,7.4C94,8.6,93.8,9.8,93.7,11c0,0.4-0.1,0.8-0.2,1.2c-0.1,0.4-0.3,0.8-0.5,1.1
		c-0.3,0.5-0.8,1-1.3,1.3c-0.5,0.3-1.1,0.5-1.7,0.6c-0.5,0.1-0.9,0.2-1.4,0.1c-0.5,0-0.9,0-1.4-0.1v0c-0.2,0-0.3,0-0.5,0
		s-0.4,0-0.5,0l-0.1,0c0,0,0,0,0,0c-0.6,0-1.3,0-1.9,0c-0.6,0-1.3,0-1.9,0c-0.2-0.4-0.1-0.8,0.2-1.1c0.2-0.2,0.3-0.2,0.5-0.3
		C83.2,14.1,83.4,14.1,83.5,14.2z M89.4,1.9c-0.4-0.3-0.8-0.5-1.3-0.6c-0.5-0.1-1-0.1-1.5-0.1c-0.3,4.5-0.2,9.1,0.4,13.6
		c0.2,0,0.4,0,0.5-0.1c0.2,0,0.4-0.1,0.6-0.1c0.3-0.1,0.6-0.2,0.9-0.4c0.3-0.2,0.6-0.4,0.8-0.7c0.2-0.3,0.4-0.6,0.5-1
		s0.2-0.7,0.2-1.1c0.4-2.1,0.4-4.2,0.2-6.3c-0.1-0.6-0.2-1.2-0.4-1.9C90.3,2.8,89.9,2.3,89.4,1.9z"/>
	<path fill="#c3c3c3" d="M102.4,9.7c-0.6-0.1-1.3-0.1-2,0c-0.7,0.1-1.4,0.4-2,0.8l-0.2-1.4L99.1,9c0-0.4-0.1-0.7-0.1-1
		c0-0.2-0.1-0.5-0.1-0.9c-0.3,0-0.6,0.1-0.9,0.1c-0.3,0-0.6,0.1-1,0.1c-0.2,0.7-0.3,1.3-0.4,1.8c-0.1,0.5-0.2,1.1-0.4,1.6l0.2-0.1
		l0.7,0.6c-0.4,0.2-0.8,0.6-1.2,1.1c-0.4,0.5-0.7,1-0.9,1.5l-0.9-0.5c0-0.1,0.1-0.2,0.2-0.4c0.1-0.2,0.2-0.3,0.2-0.4
		c0.1-0.2,0.2-0.5,0.3-1c0.1-0.4,0.2-0.9,0.4-1.3c0.1-0.5,0.2-0.9,0.3-1.3c0.1-0.4,0.2-0.7,0.2-0.9c0.1-0.4,0.2-0.8,0.3-1.2
		c0.1-0.4,0.2-0.8,0.3-1.2c0.2-0.7,0.3-1.4,0.4-2.1c0.1-0.7,0.2-1.4,0.3-2.2c-0.1,0-0.2,0-0.3,0c-0.1,0-0.2,0-0.3,0l0.1-0.8l4-0.1
		l0.1,0.8c-0.1,0-0.2,0-0.2,0c0,0-0.1,0-0.2,0c0.1,0.7,0.2,1.4,0.3,2c0.1,0.6,0.2,1.2,0.3,1.8c0.1,0.6,0.2,1.2,0.3,1.8
		c0.1,0.6,0.2,1.3,0.4,2c0.2,0,0.3,0,0.3,0c0,0,0.1,0,0.3,0L102.4,9.7z M98.8,6.1c-0.1-0.7-0.2-1.3-0.3-2c-0.1-0.6-0.3-1.3-0.4-2
		c-0.1,0.6-0.2,1.3-0.4,2.1c-0.1,0.7-0.3,1.5-0.5,2.2L98.8,6.1z"/>
	<path fill="#c3c3c3" d="M124.9,20.1c0-0.3,0.1-0.6,0.3-0.8c0.2-0.2,0.4-0.3,0.7-0.4c0.3-0.1,0.5,0,0.8,0.1c0.3,0.1,0.5,0.3,0.6,0.5
		c0.3,0.4,0.6,0.9,0.7,1.4c0.2,0.5,0.2,1,0.2,1.5c0,0.5-0.1,1-0.3,1.5c-0.2,0.5-0.4,1-0.7,1.4c-0.6,0.9-1.4,1.6-2.4,2
		c-1,0.5-2,0.7-3,0.7c-1.5,0-2.8-0.3-3.9-1s-2.1-1.4-3-2.4c-0.9-1-1.8-2.1-2.5-3.2c-0.8-1.2-1.5-2.3-2.3-3.5c-1.1,1.2-2.4,2.2-3.9,3
		c-1.5,0.8-3,1.1-4.5,1c-1.1,0-2.1-0.1-3-0.5c-0.9-0.3-1.6-0.8-2.2-1.4c-0.6-0.6-0.9-1.3-1.1-2.2c-0.2-0.8-0.1-1.7,0.2-2.7
		c0.3-0.9,0.7-1.6,1.3-2.2c0.6-0.6,1.2-1.1,2-1.5c0.7-0.4,1.5-0.6,2.4-0.7c0.8-0.1,1.7,0,2.6,0.2c0-1.7,0-3.4,0-5c0-1.7,0-3.2,0-4.6
		c-0.3,0-0.6,0-0.9,0c-0.3,0-0.6,0-0.9,0c0-0.2,0-0.3,0-0.5s0-0.3,0-0.5l3.7-0.1c0.8-0.2,1.6-0.2,2.4-0.1c0.8,0.1,1.6,0.3,2.4,0.5
		c0.7,0.3,1.4,0.7,1.9,1.2c0.5,0.5,0.9,1.1,1.1,1.8c0.3,1.2,0.4,2.4,0.3,3.6c-0.1,1.2-0.2,2.5-0.4,3.7c-0.1,1-0.4,2-0.8,3
		c-0.5,1-1,2-1.7,2.9c0.3,0.4,0.6,0.8,0.8,1.2c0.3,0.4,0.5,0.8,0.8,1.2c0.5,0.8,1.1,1.6,1.7,2.5c0.6,0.8,1.3,1.6,2,2.4
		c0.7,0.7,1.5,1.3,2.4,1.8s1.8,0.7,2.9,0.8c1.1,0,2.1-0.2,3-0.7c0.9-0.5,1.6-1.2,2.1-2.2c0.2-0.4,0.3-0.8,0.4-1.3
		c0.1-0.5,0-0.9-0.1-1.3c-0.2,0.1-0.4,0.2-0.6,0.2c-0.2,0-0.4,0-0.6-0.1c-0.2-0.1-0.4-0.2-0.5-0.4S124.9,20.4,124.9,20.1z M102.9,21
		c1.5-0.4,2.8-1,3.7-1.8c0.9-0.8,1.7-1.7,2.3-2.8c-0.2-0.2-0.3-0.5-0.6-0.7c-0.6-0.7-1.2-1.4-1.9-1.9c0,0.6,0.1,1.2,0.1,1.8
		c0,0.6,0.1,1.1,0.2,1.6h0v0.1c-0.5,0-0.9,0-1.3,0c-0.4,0-0.8,0-1.2,0c-0.3,0-0.6,0-0.9,0c-0.3,0-0.6,0-0.9,0
		c-0.1-0.2-0.1-0.4,0-0.7c0-0.2,0.1-0.3,0.3-0.5c0.3-0.3,0.7-0.4,1.1-0.2l0.1-3.5c-0.5-0.2-1-0.3-1.5-0.3c-0.5,0-1.1,0-1.6,0.1
		c-0.6,0.1-1.1,0.3-1.6,0.6c-0.5,0.3-0.9,0.7-1.3,1.1c-0.4,0.4-0.7,0.9-0.9,1.5c-0.2,0.5-0.3,1.1-0.3,1.6c0,0.7,0.2,1.3,0.6,1.8
		c0.4,0.5,0.9,0.9,1.4,1.4c0.2,0.2,0.5,0.3,0.8,0.5c0.3,0.1,0.7,0.2,1.1,0.3c0.4,0.1,0.8,0.1,1.2,0.1
		C102.1,21.1,102.5,21.1,102.9,21z M109.3,1.9c-0.4-0.3-0.8-0.5-1.2-0.6c-0.5-0.1-0.9-0.1-1.4-0.1c-0.1,1.7-0.2,3.4-0.3,5.3
		c-0.1,1.9-0.1,3.7,0,5.6c0.6,0.4,1.2,0.8,1.7,1.4c0.5,0.5,1,1.1,1.5,1.6c0.2-0.6,0.4-1.2,0.6-1.9c0.2-0.6,0.3-1.2,0.3-1.7
		c0.2-1.1,0.2-2.1,0.3-3.1c0-1,0-2.1-0.1-3.1c-0.1-0.6-0.2-1.2-0.4-1.9C110.1,2.8,109.8,2.3,109.3,1.9z"/>
	<path fill="#c3c3c3" d="M116.5,1.2c-0.3,0-0.6,0-0.9,0c-0.3,0-0.6,0-0.9,0V0.4c0.5,0,0.9,0,1.2-0.1s0.7,0,1.1,0c0.4,0,0.7,0,1.1,0
		s0.8,0,1.3-0.1c0.9,0,1.8,0,2.8-0.1c0.9,0,1.8,0,2.8-0.1c0,0.6,0,1.2,0,1.8c0,0.6,0,1.2,0,1.8c-0.2,0-0.3,0-0.5,0
		c-0.2,0-0.3,0-0.5,0c-0.1,0-0.2,0-0.3,0c-0.1,0-0.1-0.1,0-0.1c0.1-0.2,0.1-0.4,0.1-0.6s0-0.4-0.1-0.6c-0.1-0.2-0.2-0.4-0.3-0.6
		c-0.1-0.2-0.2-0.3-0.4-0.4c-0.2-0.1-0.4-0.2-0.6-0.2c-0.2,0-0.5,0-0.7,0c-0.3,0-0.5,0.1-0.8,0.1c-0.3,0.1-0.5,0.2-0.6,0.4
		c-0.1,0.2-0.1,0.3-0.1,0.3c0,0.1,0,0.2,0,0.3c0,0.7-0.1,1.3-0.1,2c0,0.6-0.1,1.3-0.1,1.9c0,0.2,0,0.3,0,0.5c0,0.2,0,0.3,0,0.5
		c0.6-0.2,1.2-0.3,1.9-0.4c0.6-0.1,1.2-0.3,1.9-0.4c0,0.1,0.1,0.2,0.1,0.3c0,0.1,0,0.3,0,0.4c0,0.2-0.1,0.3-0.1,0.4
		c-0.1,0.1-0.1,0.2-0.1,0.3c-0.1,0.1-0.2,0.1-0.4,0.2c-0.1,0-0.3,0.1-0.4,0.1c-0.5,0.1-0.9,0.2-1.4,0.3c-0.5,0.1-0.9,0.1-1.4,0.2
		c0,1-0.1,2-0.2,2.9c-0.1,1-0.1,1.9-0.2,2.9c0.8,0.2,1.5,0.3,2,0.1c0.6-0.2,1.2-0.5,1.9-1c0.2-0.1,0.2-0.3,0.2-0.5
		c0-0.2,0-0.5,0-0.7c0-0.2,0.1-0.5,0.2-0.6c0.1-0.2,0.3-0.3,0.7-0.4c0.4,0,0.6,0.1,0.7,0.4c0.1,0.3,0.2,0.7,0.2,1.1
		c0,0.5,0,0.9-0.1,1.4c-0.1,0.5-0.1,0.9,0,1.2c-0.5,0-1,0-1.4,0c-0.4,0-0.8,0-1.2,0.1c-0.4,0-0.8,0-1.2,0.1c-0.4,0-0.9,0-1.3,0
		c-0.9,0-1.7,0-2.5,0.1c-0.7,0.1-1.6,0.1-2.4,0.1c-0.2-0.2-0.2-0.4-0.2-0.7c0-0.2,0.1-0.5,0.3-0.6c0.2-0.2,0.3-0.3,0.6-0.3
		c0.2-0.1,0.5,0,0.7,0.1c0.1-2.1,0.2-4.3,0.1-6.5C116.3,5.5,116.3,3.4,116.5,1.2z"/>
</g>
</svg>
