<?xml version="1.0" encoding="utf-8"?>
<svg viewBox="191.2555694580078 0.1306610107421875 262.78765869140625 58.028564453125" width="262.78765869140625" height="58.028564453125" xmlns="http://www.w3.org/2000/svg">
  <g id="XMLID_9_" transform="matrix(0.24205200374126434, 0, 0, 0.24205200374126434, 177.41818237304688, -91.88105773925781)">
    <g id="XMLID_5_">
      <g id="XMLID_1_">
        <path id="XMLID_6_" d="M307.235,614.59H60.228c-1.691,0-3.061-1.37-3.061-3.061V383.193c0-1.691,1.37-3.061,3.061-3.061h247.008&#10;&#9;&#9;&#9;&#9;c1.691,0,3.061,1.37,3.061,3.061v228.336C310.296,613.22,308.926,614.59,307.235,614.59z M63.289,608.468h240.886V386.254H63.289&#10;&#9;&#9;&#9;&#9;V608.468z" style="fill: rgb(255, 255, 255);"/>
      </g>
      <polygon id="XMLID_15_" points="115.94 390.413 115.94 485.57 210.223 390.413 270.566 390.413 183.432 473.738 276.15 604.31 218.438 604.309 153.828 502.027 116.33 537.088 115.58 604.309 300.332 604.309 300.332 390.413" style="fill: rgb(255, 255, 255);"/>
    </g>
    <g id="XMLID_10_">
      <path id="XMLID_14_" d="M354.258,389.452h24.791v40.841l31.322-40.841h30.788l-35.187,41.885l39.585,64.541h-30.788l-25.59-44.717&#10;&#9;&#9;&#9;l-10.129,11.925v32.792h-24.791V389.452z" style="fill: rgb(255, 255, 255);"/>
      <path id="XMLID_17_" d="M475.541,408.83h-22.658v-19.378h22.658V408.83z M452.883,418.518h22.658v77.36h-22.658V418.518z" style="fill: rgb(255, 255, 255);"/>
      <path id="XMLID_20_" d="M492.332,418.518h21.991v13.564h0.267c3.332-9.837,11.063-15.054,20.792-15.054&#10;&#9;&#9;&#9;c1.732,0,3.598,0.149,5.331,0.596v23.103c-2.932-0.894-5.598-1.49-8.663-1.49c-11.196,0-17.06,8.645-17.06,18.334v38.307h-22.658&#10;&#9;&#9;&#9;V418.518z" style="fill: rgb(255, 255, 255);"/>
      <path id="XMLID_22_" d="M565.9,470.389c0,3.875,1.466,6.707,3.732,8.645c2.133,1.789,5.198,2.683,8.397,2.683&#10;&#9;&#9;&#9;c4.399,0,10.663-2.086,10.663-8.197c0-5.963-7.064-7.155-11.063-8.199c-14.261-4.024-32.121-4.472-32.121-25.339&#10;&#9;&#9;&#9;c0-18.632,17.993-23.7,31.588-23.7c15.193,0,31.055,4.919,31.855,25.042h-20.925c0-3.279-1.067-5.367-2.933-6.707&#10;&#9;&#9;&#9;c-1.865-1.342-4.399-1.938-7.197-1.938c-3.732,0-9.73,0.446-9.73,5.813c0,7.303,15.195,8.645,25.59,11.179&#10;&#9;&#9;&#9;c13.995,3.131,17.594,14.459,17.594,20.867c0,20.719-17.594,27.575-33.188,27.575c-16.394,0-33.188-6.111-33.854-27.724H565.9z" style="fill: rgb(255, 255, 255);"/>
      <path id="XMLID_24_" d="M667.459,446.839c-0.133-6.559-5.331-11.179-11.062-11.179c-12.661,0-14.661,12.073-14.661,22.806&#10;&#9;&#9;&#9;c0,9.986,3.865,20.271,13.461,20.271c7.864,0,11.863-5.067,12.929-13.266h21.991c-1.998,20.719-16.394,32.643-34.787,32.643&#10;&#9;&#9;&#9;c-20.791,0-36.252-15.948-36.252-39.648c0-24.595,13.995-42.183,36.252-42.183c17.195,0,32.521,10.136,34.12,30.556H667.459z" style="fill: rgb(255, 255, 255);"/>
      <path id="XMLID_26_" d="M701.441,389.452h22.658v39.649h0.267c3.465-7.9,12.794-12.819,21.059-12.819&#10;&#9;&#9;&#9;c23.057,0,24.924,18.781,24.924,29.96v49.635h-22.658v-37.413c0-10.584,1.066-21.315-11.33-21.315&#10;&#9;&#9;&#9;c-8.53,0-12.262,8.049-12.262,16.545v42.182h-22.658V389.452z" style="fill: rgb(255, 255, 255);"/>
      <path id="XMLID_28_" d="M785.405,389.452h22.658v37.562h0.266c4.665-7.155,11.197-10.732,19.727-10.732&#10;&#9;&#9;&#9;c19.592,0,29.188,19.079,29.188,39.201c0,21.762-9.197,42.63-30.922,42.63c-7.997,0-14.661-3.875-19.059-11.178h-0.268v8.943&#10;&#9;&#9;&#9;h-21.591V389.452z M807.264,456.378c0,13.565,3.465,22.358,13.727,22.358c10.129,0,13.596-11.775,13.596-22.358&#10;&#9;&#9;&#9;c0-9.837-3.466-20.718-13.461-20.718C814.994,435.66,807.264,440.429,807.264,456.378z" style="fill: rgb(255, 255, 255);"/>
      <path id="XMLID_31_" d="M868.435,442.367c0.4-10.136,4.665-16.694,10.796-20.719c6.131-3.875,14.128-5.366,21.991-5.366&#10;&#9;&#9;&#9;c16.395,0,32.255,4.025,32.255,25.936v33.835c0,6.559,0,13.714,2.665,19.825h-22.791c-0.8-2.386-1.066-4.77-1.333-7.304&#10;&#9;&#9;&#9;c-5.864,6.858-14.527,9.54-22.791,9.54c-13.195,0-23.591-7.451-23.591-23.401c0-25.191,24.523-23.253,40.25-26.831&#10;&#9;&#9;&#9;c3.865-0.894,5.998-2.385,5.998-7.155c0-5.813-6.264-8.048-10.929-8.048c-6.264,0-10.263,3.13-11.33,9.688H868.435z&#10;&#9;&#9;&#9; M897.758,482.463c10.796,0,14.394-6.856,13.862-22.806c-3.199,2.235-9.064,2.683-13.995,4.173&#10;&#9;&#9;&#9;c-5.065,1.342-9.33,3.727-9.33,9.839C888.295,479.929,892.692,482.463,897.758,482.463z" style="fill: rgb(255, 255, 255);"/>
      <path id="XMLID_34_" d="M1017.173,495.878h-21.991v-10.583h-0.266c-4.266,7.899-13.062,12.818-21.059,12.818&#10;&#9;&#9;&#9;c-19.86,0-25.59-12.818-25.59-33.089v-46.506h22.658v44.866c0,10.285,3.998,13.861,11.195,13.861&#10;&#9;&#9;&#9;c4.932,0,12.395-3.576,12.395-17.29v-41.437h22.658V495.878z" style="fill: rgb(255, 255, 255);"/>
      <path id="XMLID_36_" d="M1032.363,418.518h21.991v10.583h0.267c4.131-7.751,11.461-12.819,19.858-12.819&#10;&#9;&#9;&#9;c8.663,0,16.394,3.13,20.126,12.52c5.465-8.198,12.262-12.52,21.592-12.52c21.991,0,24.39,18.632,24.39,33.388v46.207h-22.658&#10;&#9;&#9;&#9;v-45.462c0-8.348-3.599-13.266-9.463-13.266c-9.73,0-10.663,8.347-10.663,20.868v37.86h-22.658v-43.971&#10;&#9;&#9;&#9;c0-9.092-2.399-14.757-8.53-14.757c-8.131,0-11.596,5.217-11.596,21.017v37.711h-22.658V418.518z" style="fill: rgb(255, 255, 255);"/>
    </g>
    <g id="XMLID_38_">
      <path id="XMLID_41_" d="M351.709,606.632v-46.717h17.004c5.53,0,10.715,0.324,15.346,3.503c6.567,4.477,8.295,13.561,8.295,19.79&#10;&#9;&#9;&#9;c0,6.164-1.452,13.041-6.014,17.714c-4.563,4.801-11.06,5.709-17.627,5.709H351.709z M356.409,602.869h11.268&#10;&#9;&#9;&#9;c4.217,0,7.88-0.259,11.682-2.141c6.636-3.179,8.295-11.161,8.295-17.519c0-6.813-1.59-14.275-8.572-17.778&#10;&#9;&#9;&#9;c-2.972-1.493-7.258-1.752-11.406-1.752h-11.268V602.869z" style="fill: rgb(255, 255, 255);"/>
      <path id="XMLID_44_" d="M403.55,590.735c-0.069,7.267,4.078,13.301,12.028,13.301c5.392,0,9.609-2.79,10.853-7.721h4.632&#10;&#9;&#9;&#9;c-2.074,6.359-6.36,11.225-15.484,11.225c-11.475,0-16.452-7.657-16.452-17.584c0-9.797,6.221-17.844,16.452-17.844&#10;&#9;&#9;&#9;c9.816,0,15.83,6.554,15.76,18.622H403.55z M426.914,587.491c0-6.554-3.871-11.874-11.336-11.874&#10;&#9;&#9;&#9;c-7.327,0-11.198,5.516-12.028,11.874H426.914z" style="fill: rgb(255, 255, 255);"/>
      <path id="XMLID_47_" d="M435.622,573.021h4.493l11.613,28.808l11.613-28.808h4.493l-13.895,33.61h-4.632L435.622,573.021z" style="fill: rgb(255, 255, 255);"/>
      <path id="XMLID_49_" d="M476.543,590.735c-0.069,7.267,4.078,13.301,12.028,13.301c5.392,0,9.609-2.79,10.853-7.721h4.632&#10;&#9;&#9;&#9;c-2.074,6.359-6.36,11.225-15.484,11.225c-11.475,0-16.452-7.657-16.452-17.584c0-9.797,6.221-17.844,16.452-17.844&#10;&#9;&#9;&#9;c9.816,0,15.83,6.554,15.76,18.622H476.543z M499.908,587.491c0-6.554-3.871-11.874-11.336-11.874&#10;&#9;&#9;&#9;c-7.327,0-11.198,5.516-12.028,11.874H499.908z" style="fill: rgb(255, 255, 255);"/>
      <path id="XMLID_52_" d="M513.04,606.632v-46.717h4.147v46.717H513.04z" style="fill: rgb(255, 255, 255);"/>
      <path id="XMLID_54_" d="M525.412,589.826c0-9.797,5.53-17.714,16.59-17.714c11.198,0,16.59,7.851,16.59,17.714&#10;&#9;&#9;&#9;c0,10.642-6.568,17.714-16.59,17.714C532.876,607.41,525.412,601.57,525.412,589.826z M542.002,575.617&#10;&#9;&#9;&#9;c-8.711,0-12.166,6.942-12.166,14.21c0,8.37,4.216,14.21,12.166,14.21c8.709,0,12.166-7.007,12.166-14.21&#10;&#9;&#9;&#9;C554.099,581.911,550.78,575.617,542.002,575.617z" style="fill: rgb(255, 255, 255);"/>
      <path id="XMLID_57_" d="M570.825,619.868h-4.148v-46.846h4.148v5.904h0.139c2.419-4.412,7.88-6.813,12.442-6.813&#10;&#9;&#9;&#9;c11.544,0,16.175,7.721,16.175,17.649c0,9.408-5.046,17.779-15.967,17.779c-5.047,0-10.162-2.206-12.789-6.294V619.868z&#10;&#9;&#9;&#9; M582.922,604.036c8.572,0,12.581-6.813,12.236-15.247c-0.069-8.436-5.254-13.172-12.236-13.172&#10;&#9;&#9;&#9;c-7.81,0-12.097,6.229-12.097,14.34C570.825,597.548,575.388,604.036,582.922,604.036z" style="fill: rgb(255, 255, 255);"/>
      <path id="XMLID_60_" d="M612.022,606.632h-4.148v-33.61h4.148v5.061h0.138c2.143-3.828,6.429-5.969,11.06-5.969&#10;&#9;&#9;&#9;c6.636,0,8.987,2.92,10.508,6.488c2.35-4.347,6.567-6.488,11.682-6.488c9.747,0,11.129,6.554,11.129,13.301v21.218h-4.148v-23.229&#10;&#9;&#9;&#9;c0-4.802-1.797-7.786-7.673-7.786c-3.042,0-6.014,1.233-8.088,3.829c-1.797,2.206-2.351,6.293-2.351,9.084v18.103h-4.148v-23.229&#10;&#9;&#9;&#9;c0-4.802-1.797-7.786-7.673-7.786c-3.042,0-6.013,1.233-8.088,3.829c-1.797,2.206-2.35,6.293-2.35,9.084V606.632z" style="fill: rgb(255, 255, 255);"/>
      <path id="XMLID_62_" d="M668.563,590.735c-0.068,7.267,4.078,13.301,12.029,13.301c5.391,0,9.609-2.79,10.852-7.721h4.632&#10;&#9;&#9;&#9;c-2.075,6.359-6.36,11.225-15.484,11.225c-11.475,0-16.453-7.657-16.453-17.584c0-9.797,6.221-17.844,16.453-17.844&#10;&#9;&#9;&#9;c9.815,0,15.83,6.554,15.76,18.622H668.563z M691.928,587.491c0-6.554-3.872-11.874-11.336-11.874&#10;&#9;&#9;&#9;c-7.327,0-11.199,5.516-12.029,11.874H691.928z" style="fill: rgb(255, 255, 255);"/>
      <path id="XMLID_65_" d="M708.586,606.632h-4.148v-33.61h4.148v4.672c3.318-3.309,6.567-5.58,11.543-5.58&#10;&#9;&#9;&#9;c4.355,0,8.365,1.298,10.923,4.802c1.728,2.4,1.797,4.932,1.797,7.721v21.996h-4.148V584.7c0-6.034-2.627-9.084-9.263-9.084&#10;&#9;&#9;&#9;c-5.115,0-8.64,3.115-9.954,6.554c-0.83,2.141-0.898,4.022-0.898,6.359V606.632z" style="fill: rgb(255, 255, 255);"/>
      <path id="XMLID_67_" d="M755.451,606.762c-0.969,0.194-2.766,0.778-4.77,0.778c-4.078,0-6.36-1.687-6.36-6.684v-24.591h-5.046&#10;&#9;&#9;&#9;v-3.244h5.046v-9.344h4.148v9.344h6.704v3.244h-6.704V599.3c0,3.31,0.138,4.736,3.594,4.736c1.106,0,2.281-0.194,3.387-0.453&#10;&#9;&#9;&#9;V606.762z" style="fill: rgb(255, 255, 255);"/>
      <path id="XMLID_69_" d="M803.077,586.258v-3.764h21.292v24.137h-4.009v-7.981c-3.457,5.58-8.78,9.214-18.595,9.214&#10;&#9;&#9;&#9;c-12.581,0-21.775-8.241-21.775-24.851c0-13.69,7.327-24.332,23.018-24.332c10.438,0,18.665,4.802,20.807,14.794h-4.839&#10;&#9;&#9;&#9;c-1.658-7.008-8.226-11.031-15.623-11.031c-13.133,0-18.664,9.084-18.664,22.32c0,10.318,6.636,19.337,18.042,19.337&#10;&#9;&#9;&#9;c5.393,0,11.751-2.141,15.001-8.176c1.589-2.92,2.073-6.164,2.143-9.667H803.077z" style="fill: rgb(255, 255, 255);"/>
      <path id="XMLID_71_" d="M839.435,606.632h-4.148v-33.61h4.148v6.294h0.138c2.281-5.385,5.669-7.202,11.683-7.202v4.218&#10;&#9;&#9;&#9;c-9.332-0.195-11.821,6.294-11.821,13.821V606.632z" style="fill: rgb(255, 255, 255);"/>
      <path id="XMLID_73_" d="M854.503,589.826c0-9.797,5.53-17.714,16.59-17.714c11.199,0,16.59,7.851,16.59,17.714&#10;&#9;&#9;&#9;c0,10.642-6.567,17.714-16.59,17.714C861.969,607.41,854.503,601.57,854.503,589.826z M871.094,575.617&#10;&#9;&#9;&#9;c-8.709,0-12.166,6.942-12.166,14.21c0,8.37,4.216,14.21,12.166,14.21c8.709,0,12.166-7.007,12.166-14.21&#10;&#9;&#9;&#9;C883.19,581.911,879.872,575.617,871.094,575.617z" style="fill: rgb(255, 255, 255);"/>
      <path id="XMLID_76_" d="M919.549,573.021h4.147v33.61h-4.147v-4.672c-2.212,2.335-5.254,5.58-11.544,5.58&#10;&#9;&#9;&#9;c-9.539,0-12.72-5.385-12.72-12.393v-22.126h4.148v22.061c0,5.774,2.696,8.953,9.194,8.953c6.844,0,10.923-5.32,10.923-12.717&#10;&#9;&#9;&#9;V573.021z" style="fill: rgb(255, 255, 255);"/>
      <path id="XMLID_78_" d="M938.35,619.868h-4.148v-46.846h4.148v5.904h0.139c2.419-4.412,7.88-6.813,12.442-6.813&#10;&#9;&#9;&#9;c11.544,0,16.175,7.721,16.175,17.649c0,9.408-5.046,17.779-15.968,17.779c-5.046,0-10.161-2.206-12.788-6.294V619.868z&#10;&#9;&#9;&#9; M950.447,604.036c8.572,0,12.581-6.813,12.235-15.247c-0.069-8.436-5.254-13.172-12.235-13.172&#10;&#9;&#9;&#9;c-7.811,0-12.097,6.229-12.097,14.34C938.35,597.548,942.913,604.036,950.447,604.036z" style="fill: rgb(255, 255, 255);"/>
      <path id="XMLID_81_" d="M983.071,608.578c0,3.763-2.143,6.099-5.046,6.942v-2.4c1.106-0.649,2.35-1.687,2.35-4.283v-2.206h-2.35&#10;&#9;&#9;&#9;v-5.709h5.046V608.578z" style="fill: rgb(255, 255, 255);"/>
      <path id="XMLID_83_" d="M1020.536,606.632v-46.717h4.7v42.954h26.683v3.763H1020.536z" style="fill: rgb(255, 255, 255);"/>
      <path id="XMLID_85_" d="M1058.967,606.632v-46.717h4.7v42.954h26.683v3.763H1058.967z" style="fill: rgb(255, 255, 255);"/>
      <path id="XMLID_87_" d="M1132.723,573.476c-1.936-7.981-7.19-11.031-15.691-11.031c-12.029,0-17.213,9.668-17.213,20.699&#10;&#9;&#9;&#9;c0,10.447,4.078,20.958,17.627,20.958c8.572,0,13.895-5.451,15.762-12.848h4.907c-2.212,9.019-8.225,16.61-21.567,16.61&#10;&#9;&#9;&#9;c-15.347,0-21.429-11.354-21.429-24.592c0-17.843,9.954-24.591,23.157-24.591c10.23,0,17.696,5.126,19.286,14.794H1132.723z" style="fill: rgb(255, 255, 255);"/>
    </g>
    <path id="XMLID_12_" d="M1139.333,534.417H352.115c-1.933,0-3.5-1.567-3.5-3.5v-1.571c0-1.933,1.567-3.5,3.5-3.5h787.218&#10;&#9;&#9;c1.933,0,3.5,1.567,3.5,3.5v1.571C1142.833,532.85,1141.266,534.417,1139.333,534.417z" style="fill: rgb(255, 255, 255);"/>
  </g>
</svg>