<svg xmlns="http://www.w3.org/2000/svg" width="42" height="42" viewBox="0 0 42 44">
    <defs>
        <linearGradient id="a" x1="50%" x2="50%" y1="0%" y2="100%">
            <stop stop-color="#FED757" offset="0%"></stop>
            <stop stop-color="#E37414" offset="100%"></stop>
        </linearGradient>
    </defs>
    <path fill="url(#a)" d="M92.83 510.17l-3.5-3.5v7l3.5 3.5v2.33l-3.5-3.5v7l3.5 3.5v4.67h2.34v-28l-1.75-1.75-4.09-4.09v7l3.5 3.5v2.34zm-30.33 0l-3.5-3.5v7l3.5 3.5v2.33L59 516v7l3.5 3.5v4.67h2.33v-28l-1.75-1.75-4.08-4.09v7l3.5 3.5v2.34zm15.17 0l-3.5-3.5v7l3.5 3.5v2.33l-3.5-3.5v7l3.5 3.5v4.67H80v-37.34l-1.75-1.75-4.08-4.08v7l3.5 3.5v2.33l-3.5-3.5v7l3.5 3.5v2.34zm3.5 1.16l4.66-4.66v7l-4.66 4.66v-7zm0 9.34l4.66-4.67v7l-4.66 4.67v-7zm0-18.67l4.66-4.67v7L81.17 509v-7zm0-9.33l4.66-4.67v7l-4.66 4.67v-7zM66 511.33l4.67-4.66v7L66 518.33v-7zm0 9.34l4.67-4.67v7L66 527.67v-7zM66 502l4.67-4.67v7L66 509v-7zm30.33 9.33l4.67-4.66v7l-4.67 4.66v-7zm0 9.34L101 516v7l-4.67 4.67v-7zm0-18.67l4.67-4.67v7L96.33 509v-7z" transform="translate(-59 -488)"></path>
</svg>