<svg xmlns="http://www.w3.org/2000/svg" width="40" height="40" viewBox="0 0 40 40">
    <defs>
        <linearGradient id="a" x1="50%" x2="50%" y1="0%" y2="100%">
            <stop stop-color="#9B27AC" offset="0%"></stop>
            <stop stop-color="#F34F4F" offset="100%"></stop>
        </linearGradient>
    </defs>
    <path fill="url(#a)" d="M77 781a20 20 0 1 1 0-40 20 20 0 0 1 0 40zm9.7-10.17a13.97 13.97 0 0 0 2.88-4.18 14 14 0 0 1-18.5-18.5 14 14 0 1 0 15.61 22.68zm-14.14-5.65a16 16 0 0 0 12.29 4.66 12 12 0 0 1-16.95-16.95 16 16 0 0 0 4.66 12.29z" transform="translate(-57 -741)"></path>
</svg>