<svg xmlns="http://www.w3.org/2000/svg" width="40" height="40" viewBox="0 0 40 40">
    <defs>
        <linearGradient id="a" x1="50%" x2="50%" y1="0%" y2="100%">
            <stop stop-color="#4BC0CE" offset="0%"></stop>
            <stop stop-color="#4BA898" offset="100%"></stop>
        </linearGradient>
    </defs>
    <path fill="url(#a)" d="M20 40a20 20 0 1 1 0-40 20 20 0 0 1 0 40zm12.37-7.63A17.5 17.5 0 1 0 7.63 7.63a17.5 17.5 0 0 0 24.74 24.74zm-16.6 1.64a7.5 7.5 0 1 0-9.79-9.79 10.5 10.5 0 1 1 9.79 9.79zm4.32 1.49A12.5 12.5 0 1 0 4.5 19.9a15.5 15.5 0 1 1 15.6 15.6zm-3.27-4.54a5.5 5.5 0 1 1-7.78-7.78 5.5 5.5 0 0 1 7.78 7.78z"></path>
</svg>