<svg xmlns="http://www.w3.org/2000/svg" width="45" height="31" viewBox="0 0 45 31">
    <defs>
        <linearGradient id="a" x1="50%" x2="50%" y1="0%" y2="100%">
            <stop stop-color="#A6D93E" offset="0%"></stop>
            <stop stop-color="#7ED321" offset="100%"></stop>
        </linearGradient>
        <linearGradient id="b" x1="50%" x2="50%" y1="0%" y2="100%">
            <stop stop-color="#699B0B" offset="0%"></stop>
            <stop stop-color="#417505" offset="100%"></stop>
        </linearGradient>
    </defs>
    <g>
        <path fill="url(#a)" d="M20.02 10a7 7 0 1 0 13.97.05A2.5 2.5 0 0 1 36 12.5v16a2.5 2.5 0 0 1-2.5 2.5h-31A2.5 2.5 0 0 1 0 28.5v-16A2.5 2.5 0 0 1 2.5 10h17.52zM18 26.5a6 6 0 1 0 0-12 6 6 0 0 0 0 12z"></path>
        <path fill="url(#b)" d="M9 2.5A2.5 2.5 0 0 1 11.5 0h31A2.5 2.5 0 0 1 45 2.5v16a2.5 2.5 0 0 1-2.5 2.5h-31A2.5 2.5 0 0 1 9 18.5v-16zm18 14a6 6 0 1 0 0-12 6 6 0 0 0 0 12z"></path>
    </g>
</svg>