<svg xmlns="http://www.w3.org/2000/svg" width="40" height="30" viewBox="0 0 40 30">
    <defs>
        <linearGradient id="a" x1="50%" x2="50%" y1="0%" y2="100%">
            <stop stop-color="#80DCF3" offset="0%"></stop>
            <stop stop-color="#4A90E2" offset="100%"></stop>
        </linearGradient>
    </defs>
    <path fill="url(#a)" d="M20.88 0l7.5 15-7.5 15h-3.76l7.5-15-7.5-15h3.76zm2.24 0H37a3 3 0 0 1 3 3v24a3 3 0 0 1-3 3H23.12l7.5-15-7.5-15zm-8.24 0l7.5 15-7.5 15h-3.76l7.5-15-7.5-15h3.76zm-6 0l7.5 15-7.5 15H3a3 3 0 0 1-3-3V3a3 3 0 0 1 3-3h5.88z"></path>
</svg>