<svg version="1.1"
	 xmlns="http://www.w3.org/2000/svg" xmlns:xlink="http://www.w3.org/1999/xlink" xmlns:a="http://ns.adobe.com/AdobeSVGViewerExtensions/3.0/"
	 x="0px" y="0px" width="15.7px" height="18px" viewBox="0 0 15.7 18" enable-background="new 0 0 15.7 18" xml:space="preserve">
<defs>
</defs>
<g>
	<g>
		<path fill="#7F7F7F" d="M15.7,4.7C15.7,4.7,15.7,4.7,15.7,4.7c0-0.2-0.1-0.3-0.3-0.4L8.1,0.1C8,0,7.8,0,7.6,0.1L0.3,4.3
			C0.1,4.4,0,4.6,0,4.7c0,0,0,0,0,0c0,0,0,0,0,0v8.5c0,0.2,0.1,0.4,0.3,0.5l7.3,4.2c0,0,0,0,0,0c0,0,0.1,0,0.1,0c0,0,0,0,0,0
			c0,0,0.1,0,0.1,0S8,18,8,18c0,0,0,0,0,0c0,0,0.1,0,0.1,0c0,0,0,0,0,0l7.3-4.2c0.2-0.1,0.3-0.3,0.3-0.5L15.7,4.7
			C15.7,4.8,15.7,4.8,15.7,4.7z M7.9,1.2l6.3,3.6L7.9,8.4L1.6,4.8L7.9,1.2z M1.1,5.7l5.8,3.4c0,0,0,0-0.1,0L6.2,9.5
			c-0.1,0-0.1,0.2-0.1,0.2c0,0.1,0.1,0.1,0.2,0.1c0,0,0.1,0,0.1,0L7,9.4c0.1,0,0.1-0.1,0.1-0.2l0.2,0.1v7.2l-6.2-3.6V5.7z M8.4,16.5
			V9.3l0.2-0.1c0,0.1,0,0.2,0.1,0.2l0.6,0.4c0,0,0.1,0,0.1,0c0.1,0,0.1,0,0.2-0.1c0-0.1,0-0.2-0.1-0.2L8.9,9.1c0,0,0,0-0.1,0
			l5.8-3.4v7.2L8.4,16.5z"/>
		<path fill="#7F7F7F" d="M13.1,11.6l-0.6-0.4c-0.1-0.1-0.2,0-0.2,0.1c0,0.1,0,0.2,0.1,0.2l0.6,0.4c0,0,0.1,0,0.1,0
			c0.1,0,0.1,0,0.2-0.1C13.3,11.8,13.2,11.6,13.1,11.6z"/>
		<path fill="#7F7F7F" d="M14.4,12.3l-0.6-0.4c-0.1-0.1-0.2,0-0.2,0.1c0,0.1,0,0.2,0.1,0.2l0.6,0.4c0,0,0.1,0,0.1,0
			c0.1,0,0.1,0,0.2-0.1C14.5,12.5,14.4,12.3,14.4,12.3z"/>
		<path fill="#7F7F7F" d="M11.9,10.9l-0.6-0.4c-0.1-0.1-0.2,0-0.2,0.1c0,0.1,0,0.2,0.1,0.2l0.6,0.4c0,0,0.1,0,0.1,0
			c0.1,0,0.1,0,0.2-0.1C12,11.1,12,10.9,11.9,10.9z"/>
		<path fill="#7F7F7F" d="M10.7,10.2l-0.6-0.4c-0.1-0.1-0.2,0-0.2,0.1c0,0.1,0,0.2,0.1,0.2l0.6,0.4c0,0,0.1,0,0.1,0
			c0.1,0,0.1,0,0.2-0.1C10.8,10.3,10.8,10.2,10.7,10.2z"/>
		<path fill="#7F7F7F" d="M2,11.9l-0.6,0.4c-0.1,0-0.1,0.2-0.1,0.2c0,0.1,0.1,0.1,0.2,0.1c0,0,0.1,0,0.1,0l0.6-0.4
			c0.1,0,0.1-0.2,0.1-0.2C2.2,11.9,2.1,11.9,2,11.9z"/>
		<path fill="#7F7F7F" d="M5.6,9.8L5,10.2c-0.1,0-0.1,0.2-0.1,0.2c0,0.1,0.1,0.1,0.2,0.1c0,0,0.1,0,0.1,0l0.6-0.4
			c0.1,0,0.1-0.2,0.1-0.2C5.8,9.8,5.7,9.8,5.6,9.8z"/>
		<path fill="#7F7F7F" d="M3.2,11.2l-0.6,0.4c-0.1,0-0.1,0.2-0.1,0.2c0,0.1,0.1,0.1,0.2,0.1c0,0,0.1,0,0.1,0l0.6-0.4
			c0.1,0,0.1-0.2,0.1-0.2C3.4,11.2,3.3,11.2,3.2,11.2z"/>
		<path fill="#7F7F7F" d="M4.4,10.5l-0.6,0.4c-0.1,0-0.1,0.2-0.1,0.2c0,0.1,0.1,0.1,0.2,0.1c0,0,0.1,0,0.1,0l0.6-0.4
			c0.1,0,0.1-0.2,0.1-0.2C4.6,10.5,4.5,10.5,4.4,10.5z"/>
	</g>
</g>
</svg>
