<svg version="1.1"
	 xmlns="http://www.w3.org/2000/svg" xmlns:xlink="http://www.w3.org/1999/xlink" xmlns:a="http://ns.adobe.com/AdobeSVGViewerExtensions/3.0/"
	 x="0px" y="0px" width="26.2px" height="50px" viewBox="0 0 26.2 50" enable-background="new 0 0 26.2 50" xml:space="preserve">
<defs>
</defs>
<path fill="#444444" d="M15.3,0c-1.5,0-3.1,1.7-3.6,2.9c-0.5-0.4-1-0.6-1.6-0.6C8.6,2.3,7.4,4,7,5.1C6.9,5.4,6.8,5.7,6.8,6L6.8,8
	c0,0.3,0,0.7,0.1,1.1c-0.2,0.3-0.2,0.7-0.2,1l-0.1,4.4c0,0.1,0,0.2,0,0.3c0,0.2-0.1,0.5,0,0.8c-0.3,0.5-0.3,1.1-0.3,1.7
	c0,0.2,0,0.3,0,0.5L5.8,23c-0.5-0.5-1.1-0.8-1.8-0.9c-0.6-0.1-1.1-0.1-1.7,0l-0.4,0.1c-0.7,0.2-1.3,0.9-1.7,1.8
	c-0.3,1-0.4,2.1-0.1,3.1L0.5,28c0,0,0,0,0,0c-0.6,1.6-0.3,3.4,0,5.2c0.2,1,0.3,2.1,0.3,3.1c0,3.4,0.1,6.6,2.5,9
	c2.3,2.3,5.2,4.6,8.8,4.7c4.3,0,8.1-3.1,9.6-4.5c1.5-1.5,3-2.8,3.7-4.8c0.1-0.4,0.2-0.8,0.3-1.2l0.1-0.4c0-0.1,0-0.3,0.1-0.8
	c0-0.1,0.1-0.2,0.1-0.3l0,0c0.2-0.4,0.2-0.9,0.2-1.5c0-0.4-0.1-0.9-0.3-1.4c0-3.5-0.4-8.3-1.9-9.8c0,0-0.1-0.1-0.1-0.1
	c0-0.2,0-0.3,0-0.5l-0.6-6.4c0-0.7,0-1.6-0.5-2.3c0.1-0.4,0.1-0.8,0.1-1.1c0-0.1,0-0.2,0-0.3l0.1-4.4c0-0.4-0.1-0.7-0.3-1
	c0.1-0.3,0.1-0.7,0.1-1l-0.1-2.4c0-1.2-1.4-3.4-3.3-3.4c-0.6,0-1.1,0.3-1.6,0.6c0,0,0,0.1,0,0.1c0-0.7-0.2-1.5-0.5-2.1
	C16.9,0.5,16.2,0,15.3,0z M8.3,8.6c0,0-0.1-0.1-0.1-0.6l0.1-2c0,0,0-0.2,0.1-0.4c0.3-0.8,1-1.7,1.6-1.7c0.4,0,0.8,0.3,1,0.5
	c0.2,0.2,0.3,0.4,0.4,0.6c0.1,0.3,0.2,0.5,0.2,0.6l-0.1,2.5c0,0.2,0,0.4-0.1,0.5c0,0,0,0.1,0,0.1l-0.1,0.1l0,0.2
	c-0.5,0.2-1.8,0.2-2.2-0.1C9.1,8.7,8.8,8.7,8.7,8.9c0,0-0.1,0.1-0.1,0.1L8.3,8.6z M2.1,28.2l-0.5-1.5c-0.2-0.6-0.2-1.5,0-2.1
	c0.1-0.3,0.3-0.7,0.7-0.9l0.4-0.1c0.4-0.1,0.9-0.1,1.3,0.1C4.5,24,4.9,24.4,5,24.9l0.7,2.3c0,0.1,0.1,0.2,0.1,0.4c0,0,0,0-0.1,0
	c-1,0.4-1.9,0.7-2.4,1.5c0,0.1-0.1,0.2-0.1,0.3c-0.1,0.2-0.1,0.3-0.1,0.5C2.7,29.4,2.3,28.8,2.1,28.2z M16.3,30.5
	c0.3,0.2,0.6,0.3,1,0.5c1.1,0.6,2.4,1.3,3.4,1.6c2.1,0.6,3.3,1.9,3.8,3c0,1,0,1.8,0,2.4l-0.1,0c0,0.8-0.1,1.6-0.4,2.3
	c-0.6,1.6-1.8,2.8-3.3,4.2c-1,1-4.7,4.1-8.5,4.1c-3.1,0-5.5-2.1-7.7-4.3c-2-2-2.1-4.7-2.1-7.9c0-1.1-0.2-2.2-0.3-3.3
	c-0.1-1-0.3-1.9-0.3-2.7c0.7,0.8,1.6,1.6,2.5,1.8c0.3,0.3,0.7,0.6,1.2,0.8c0.7,0.3,3.4,0.2,4.5,0.1c0.5,0.7,1.5,1.7,2.1,2l0.1,0
	l1.8,0.6c0.1,0.1,0.2,0.2,0.3,0.4c0,0-0.1,0.1-0.1,0.1c-0.7,0.9-1.7,2.2-3.1,5.2l0.5,0.2l0.5,0.2c0-0.1,0.1-0.2,0.1-0.3
	c1.3-2.7,2.2-3.8,2.8-4.7c0,0,0,0,0,0c0.2,0.2,0.5,0.4,0.8,0.7c0.2,0.2,0.4,0.3,0.5,0.4c0.3,0.3,0.5,0.5,0.8,0.7l0-1.2l0-0.9
	c-0.1-0.1-0.2-0.1-0.3-0.2c-0.2-0.2-0.6-0.5-0.9-0.8c-0.1-0.1-0.3-0.3-0.4-0.4c-0.2-0.2-0.3-0.3-0.4-0.4c0,0,0,0,0-0.1l-0.1-0.3
	l-2.2-0.7c-0.5-0.3-1.5-1.4-1.7-1.8l-0.3-0.4L10,31.6c-0.7,0.1-3,0.2-3.8,0.1c-0.1,0-0.2,0-0.3,0c-0.5-0.2-0.8-0.6-1-1
	c-0.2-0.3-0.2-0.6-0.2-0.8l0,0c0.2-0.3,0.6-0.5,1.2-0.7C6,29.1,6.1,29.1,6.2,29c0.3-0.1,0.7-0.3,1.1-0.4c0.4-0.2,0.8-0.4,1.2-0.6
	l1.9,0c0,0,0,0,0,0l0,0c0,0,0,0,0,0l0.3,0.4l0.4-0.1c0.7-0.1,1.8,0.1,2.7,0.6L16.3,30.5L16.3,30.5z M21.2,6.1l0.1,2.3l0,0.1
	c0,0.1,0,0.4,0,0.5l-0.4,0.4l0,0.1c-0.6,0-1.3,0-1.5-0.2c-0.2-0.1-0.4-0.1-0.5,0.1c-0.1,0.2-0.1,0.4,0.1,0.5
	c0.5,0.4,1.6,0.4,2.4,0.3c0.1,0.1,0.1,0.1,0.1,0.2l-0.1,4.4c0,0.1,0,0.3,0,0.4c0,0.2,0,0.4,0,0.6l-0.5,0.6l0.1,0.1
	c-0.6,0.1-1.4,0-1.6-0.2c-0.2-0.1-0.4-0.1-0.5,0.1c0,0,0,0.1-0.1,0.1l-0.5-0.5c-0.1-0.1-0.3-0.4-0.3-1.1l-0.1-4.4c0,0,0-0.1,0-0.1
	l0,3.2c0,0.2,0,0.3,0,0.5c0-0.2,0-0.4,0-0.5l0.1-4.8c0-0.1,0-0.2,0-0.3c0-0.2,0.1-0.5,0-0.8C17.9,7.4,18,7.2,18,7L18,6.2l0-0.1
	c0-0.2,0-0.4,0.1-0.7c0.2-0.6,0.7-1.3,1.3-1.3C20.3,4.2,21.2,5.6,21.2,6.1z M17.9,17.2c0-0.7-0.1-1.3-0.2-1.8
	C17.9,16,17.9,16.6,17.9,17.2z M17.9,6.7C17.9,6.7,17.9,6.7,17.9,6.7c0-0.1,0-0.2,0-0.3C17.9,6.5,17.9,6.6,17.9,6.7
	C17.9,6.7,17.9,6.7,17.9,6.7z M16.1,2c0.2,0.4,0.3,1,0.3,1.3l0,3c0,0.1,0,0.3,0,0.4c0,0,0,0.1,0,0.1c-0.1,0-0.2,0-0.3,0
	c-0.4,0.3-1.9,0.3-2.3,0c-0.2-0.1-0.4-0.1-0.5,0.1c-0.1,0.2-0.1,0.4,0.1,0.5C14.1,8,15.5,8,16.3,7.7L16.4,8c0,0,0,0.1,0,0.2
	c0,0.1,0,0.3,0,0.5l-0.1,4.8c0,0.3,0,0.7-0.1,0.9c0,0.1,0,0.1-0.1,0.1L15.9,15l0,0c-0.6,0.2-1.7,0.1-2.1-0.1
	c-0.2-0.1-0.4-0.1-0.5,0.1c-0.1,0.2-0.1,0.4,0.1,0.5c0.6,0.4,2.1,0.5,2.8,0.2c0.1,0.3,0.2,0.9,0.2,1.5l-0.3,6.6c0,0,0,0,0,0
	c0.5,0.2,1,0.6,1.3,1.1c0.1-0.2,0.2-0.3,0.3-0.5l-0.1-2.6l-0.1,2l0.3-6.5c0.1-0.1,0.2-0.2,0.3-0.4l0.5-0.5c0,0.1,0,0.3,0.1,0.4
	c0.6,0.4,1.9,0.4,2.7,0.2c0.2,0.3,0.3,0.8,0.3,1.5l0.6,5.9c0.1,0.1,0.2,0.2,0.3,0.3c0,0,0.1,0.1,0.1,0.1c0.1,0.1,0.1,0.2,0.2,0.3
	c0,0,0,0.1,0.1,0.1c0,0.1,0.1,0.2,0.1,0.4c0,0,0,0.1,0,0.1c0,0.2,0.1,0.3,0,0.5c0,0.1,0,0.3,0,0.4c0,0.1,0,0.2-0.1,0.3
	c0.1-0.1,0.1-0.1,0.2-0.2c0.7,1.1,1,3.6,1.1,6.1c-0.8-0.8-1.9-1.4-3.3-1.8c-0.8-0.2-2-0.9-3.1-1.5c-0.3-0.2-0.7-0.4-1-0.5l-2.4-1.6
	l-0.1,0c-0.9-0.5-2.2-0.9-3.3-0.8c-0.1,0-0.2-0.1-0.2-0.1c0,0-0.1,0-0.1-0.1l-0.2-0.1l-2.7,0l-0.2,0.1c-0.2,0.2-0.5,0.3-0.7,0.4
	c0,0,0,0,0,0c0,0,0-0.1,0-0.1c0,0,0-0.1,0-0.1l-0.3-1c0,0,0-0.1,0-0.3c0.1-0.1,0.2-0.3,0.3-0.4c0,0,0-0.1,0-0.1l0.6-7.2
	c0-0.2,0-0.4,0-0.6c0-0.4,0-0.7,0.1-0.9c0-0.1,0.1-0.1,0.1-0.2l0.4-0.4L8,15.3c0,0,0-0.2,0-0.4c0-0.1,0-0.2,0-0.4l0.1-4.4
	c0-0.2,0-0.3,0-0.4c0,0,0-0.1,0.1-0.2l0.3-0.4c0,0.1,0.1,0.2,0.1,0.3c0.6,0.4,1.8,0.4,2.6,0.2c0.1,0.1,0.1,0.2,0.1,0.5l-0.1,4.2
	c0,0.1,0.1,0.3,0.1,0.4c0,0.1-0.1,0.1-0.1,0.2c0,0,0,0,0,0.1c0,0.1,0,0.3,0,0.3c-0.6,0.2-1.8,0.2-2.1-0.1c-0.2-0.1-0.4-0.1-0.5,0.1
	c-0.1,0.2-0.1,0.4,0.1,0.5c0.5,0.4,1.6,0.4,2.4,0.3l0.1,0.2c0.2,0.2,0.1,0.5,0.1,1c0,0.2,0,0.4,0,0.5l-0.3,6.2c0,0.2,0,0.3-0.1,0.5
	c0.4,0.2,0.7,0.5,0.9,0.8c0.1-0.3,0.3-0.5,0.5-0.7c-0.1-0.3-0.1-0.5-0.1-0.8l0.3-6.4c0-0.2,0-0.3,0-0.5c0-0.5,0-1.1,0.1-1.4
	c0-0.1,0.1-0.2,0.1-0.2l0.4-0.4l-0.3-0.5c0,0-0.2-0.3-0.1-1.5l0.1-4.2l0-0.2c0-0.3,0-0.6,0.1-0.7l0.3-0.5l-0.4-0.4c0,0,0-0.2,0-0.3
	l0-2.7c0,0,0-0.1,0.1-0.2c0.3-0.9,1.5-2.1,2.2-2.1C15.5,1.5,15.8,1.6,16.1,2z"/>
</svg>
