<svg version="1.1"
	 xmlns="http://www.w3.org/2000/svg" xmlns:xlink="http://www.w3.org/1999/xlink" xmlns:a="http://ns.adobe.com/AdobeSVGViewerExtensions/3.0/"
	 x="0px" y="0px" width="16px" height="16px" viewBox="0 0 16 16" enable-background="new 0 0 16 16" xml:space="preserve">
<defs>
</defs>
<g>
	<g>
		<path fill="#A1A1A1" d="M5.8,11.7c-1.6,0-3-0.6-4.1-1.7S0,7.4,0,5.8s0.6-3,1.7-4.1C2.8,0.6,4.3,0,5.8,0s3,0.6,4.1,1.7
			c2.3,2.3,2.3,6,0,8.3C8.9,11.1,7.4,11.7,5.8,11.7z M5.8,1C4.5,1,3.3,1.5,2.4,2.4C1.5,3.3,1,4.5,1,5.8s0.5,2.5,1.4,3.4
			c0.9,0.9,2.1,1.4,3.4,1.4s2.5-0.5,3.4-1.4c1.9-1.9,1.9-5,0-6.9C8.4,1.5,7.1,1,5.8,1z"/>
	</g>
	<g>
		<path fill="#A1A1A1" d="M15.5,16c-0.1,0-0.3,0-0.3-0.1L9.3,10c-0.2-0.2-0.2-0.5,0-0.7s0.5-0.2,0.7,0l5.9,5.9
			c0.2,0.2,0.2,0.5,0,0.7C15.8,16,15.6,16,15.5,16z"/>
	</g>
</g>
</svg>
